<svg width="699" height="726" viewBox="0 0 699 726" fill="none" xmlns="http://www.w3.org/2000/svg">
<rect width="699" height="726" fill="url(#paint0_linear_30_1671)"/>
<path d="M240.95 376.743C278.396 389.834 328.35 475.814 348.647 517.168C365.391 470.284 396.469 438.774 409.916 428.879C409.155 418.985 409.155 398.13 415.243 393.868C422.855 388.54 462.432 371.035 470.043 368.371C476.132 366.24 468.521 350.739 463.954 343.254C473.088 339.068 460.149 322.324 462.432 323.466C464.715 324.607 469.663 302.155 454.821 305.199C439.979 308.244 460.529 283.127 460.149 278.56C459.768 273.994 427.802 262.577 424.757 259.913C422.322 257.782 412.326 241.266 407.632 233.274C384.495 183.65 322.896 183.929 294.988 190.272C168.645 221.858 194.142 360.38 240.95 376.743Z" fill="#EBA591"/>
<path d="M472.122 362.349C422.741 403.703 357.052 375.984 330.38 356.954C395.916 420.335 469.074 382.576 472.122 379.879C474.56 377.722 473.138 367.293 472.122 362.349Z" fill="url(#paint1_linear_30_1671)"/>
<path d="M167.008 349.453C169.829 356.174 172.792 362.095 175.673 367.046C173.475 367.046 170.058 360.484 167.008 349.453C148.222 304.688 135.755 224.413 195.843 158.503C282.228 63.7446 401.342 59.9391 485.825 158.503C553.411 237.353 528.954 330.386 508.277 367.046C523.626 328.737 538.113 235.298 473.266 168.016C392.208 83.914 280.706 91.9056 207.259 168.016C150.782 226.542 156.859 312.743 167.008 349.453Z" fill="#EBA591"/>
<path d="M460.91 508.034C410.981 506.208 372.114 553.193 358.921 576.914C352.832 536.956 412.579 442.96 449.113 426.215C485.646 409.471 519.515 378.646 530.171 385.877C538.695 391.661 502.771 426.342 483.743 442.96C531.541 442.96 548.057 384.101 550.34 354.671C557.038 341.276 562.771 340.464 564.801 341.732C571.194 364.565 562.137 410.359 556.809 430.401C532.758 487.332 482.855 505.878 460.91 508.034Z" fill="#EBA591"/>
<path d="M237.092 507.7C287.021 505.873 325.889 552.859 339.082 576.58C345.171 536.622 285.423 442.626 248.889 425.881C212.355 409.137 178.486 378.312 167.83 385.543C159.305 391.327 195.23 426.008 214.258 442.626C166.46 442.626 149.944 383.767 147.66 354.337C140.962 340.942 135.229 340.13 133.199 341.399C126.806 364.232 135.863 410.025 141.191 430.067C165.242 486.998 215.146 505.543 237.092 507.7Z" fill="#EBA591"/>
<path d="M129 660.36H177V612.36H129V660.36ZM471.021 657H460.794L472.317 622.091H485.271L496.794 657H486.567L478.93 631.705H478.658L471.021 657ZM469.112 643.227H488.339V650.318H469.112V643.227ZM509.634 622.091V657H500.156V622.091H509.634ZM521.438 660.36H569.438V612.36H521.438V660.36Z" fill="#EBA591"/>
<path d="M207.631 633C207.54 631.864 207.114 630.977 206.352 630.341C205.602 629.705 204.46 629.386 202.926 629.386C201.949 629.386 201.148 629.506 200.523 629.744C199.909 629.972 199.455 630.284 199.159 630.682C198.864 631.08 198.71 631.534 198.699 632.045C198.676 632.466 198.75 632.847 198.92 633.188C199.102 633.517 199.386 633.818 199.773 634.091C200.159 634.352 200.653 634.591 201.256 634.807C201.858 635.023 202.574 635.216 203.403 635.386L206.267 636C208.199 636.409 209.852 636.949 211.227 637.619C212.602 638.29 213.727 639.08 214.602 639.989C215.477 640.886 216.119 641.898 216.528 643.023C216.949 644.148 217.165 645.375 217.176 646.705C217.165 649 216.591 650.943 215.455 652.534C214.318 654.125 212.693 655.335 210.58 656.165C208.477 656.994 205.949 657.409 202.994 657.409C199.96 657.409 197.313 656.96 195.051 656.062C192.801 655.165 191.051 653.784 189.801 651.92C188.563 650.045 187.938 647.648 187.926 644.727H196.926C196.983 645.795 197.25 646.693 197.727 647.42C198.205 648.148 198.875 648.699 199.739 649.074C200.614 649.449 201.653 649.636 202.858 649.636C203.869 649.636 204.716 649.511 205.398 649.261C206.08 649.011 206.597 648.665 206.949 648.222C207.301 647.778 207.483 647.273 207.494 646.705C207.483 646.17 207.307 645.705 206.966 645.307C206.636 644.898 206.091 644.534 205.33 644.216C204.568 643.886 203.54 643.58 202.244 643.295L198.767 642.545C195.676 641.875 193.239 640.756 191.455 639.188C189.682 637.608 188.801 635.455 188.812 632.727C188.801 630.511 189.392 628.574 190.585 626.915C191.79 625.244 193.455 623.943 195.58 623.011C197.716 622.08 200.165 621.614 202.926 621.614C205.744 621.614 208.182 622.085 210.239 623.028C212.295 623.972 213.881 625.301 214.994 627.017C216.119 628.722 216.688 630.716 216.699 633H207.631ZM233.531 657.477C230.69 657.477 228.259 656.915 226.236 655.79C224.213 654.653 222.662 653.074 221.582 651.051C220.503 649.017 219.963 646.659 219.963 643.977C219.963 641.295 220.503 638.943 221.582 636.92C222.662 634.886 224.213 633.307 226.236 632.182C228.259 631.045 230.69 630.477 233.531 630.477C236.372 630.477 238.804 631.045 240.827 632.182C242.849 633.307 244.401 634.886 245.48 636.92C246.56 638.943 247.099 641.295 247.099 643.977C247.099 646.659 246.56 649.017 245.48 651.051C244.401 653.074 242.849 654.653 240.827 655.79C238.804 656.915 236.372 657.477 233.531 657.477ZM233.599 650.523C234.395 650.523 235.082 650.256 235.662 649.722C236.241 649.187 236.69 648.426 237.009 647.438C237.327 646.449 237.486 645.273 237.486 643.909C237.486 642.534 237.327 641.358 237.009 640.381C236.69 639.392 236.241 638.631 235.662 638.097C235.082 637.562 234.395 637.295 233.599 637.295C232.759 637.295 232.037 637.562 231.435 638.097C230.832 638.631 230.372 639.392 230.054 640.381C229.736 641.358 229.577 642.534 229.577 643.909C229.577 645.273 229.736 646.449 230.054 647.438C230.372 648.426 230.832 649.187 231.435 649.722C232.037 650.256 232.759 650.523 233.599 650.523ZM267.895 645.545V630.818H277.304V657H268.372V652.023H268.099C267.531 653.693 266.537 655 265.116 655.943C263.696 656.875 262.009 657.341 260.054 657.341C258.224 657.341 256.622 656.92 255.247 656.08C253.884 655.239 252.821 654.08 252.06 652.602C251.31 651.125 250.929 649.432 250.918 647.523V630.818H260.327V645.545C260.338 646.841 260.668 647.858 261.315 648.597C261.974 649.335 262.895 649.705 264.077 649.705C264.861 649.705 265.537 649.54 266.105 649.21C266.685 648.869 267.128 648.392 267.435 647.778C267.753 647.153 267.906 646.409 267.895 645.545ZM291.499 622.091V657H282.089V622.091H291.499ZM314.974 633C314.884 631.864 314.457 630.977 313.696 630.341C312.946 629.705 311.804 629.386 310.27 629.386C309.293 629.386 308.491 629.506 307.866 629.744C307.253 629.972 306.798 630.284 306.503 630.682C306.207 631.08 306.054 631.534 306.043 632.045C306.02 632.466 306.094 632.847 306.264 633.188C306.446 633.517 306.73 633.818 307.116 634.091C307.503 634.352 307.997 634.591 308.599 634.807C309.202 635.023 309.918 635.216 310.747 635.386L313.611 636C315.543 636.409 317.196 636.949 318.571 637.619C319.946 638.29 321.071 639.08 321.946 639.989C322.821 640.886 323.463 641.898 323.872 643.023C324.293 644.148 324.509 645.375 324.52 646.705C324.509 649 323.935 650.943 322.798 652.534C321.662 654.125 320.037 655.335 317.923 656.165C315.821 656.994 313.293 657.409 310.338 657.409C307.304 657.409 304.656 656.96 302.395 656.062C300.145 655.165 298.395 653.784 297.145 651.92C295.906 650.045 295.281 647.648 295.27 644.727H304.27C304.327 645.795 304.594 646.693 305.071 647.42C305.548 648.148 306.219 648.699 307.082 649.074C307.957 649.449 308.997 649.636 310.202 649.636C311.213 649.636 312.06 649.511 312.741 649.261C313.423 649.011 313.94 648.665 314.293 648.222C314.645 647.778 314.827 647.273 314.838 646.705C314.827 646.17 314.651 645.705 314.31 645.307C313.98 644.898 313.435 644.534 312.673 644.216C311.912 643.886 310.884 643.58 309.588 643.295L306.111 642.545C303.02 641.875 300.582 640.756 298.798 639.188C297.026 637.608 296.145 635.455 296.156 632.727C296.145 630.511 296.736 628.574 297.929 626.915C299.134 625.244 300.798 623.943 302.923 623.011C305.06 622.08 307.509 621.614 310.27 621.614C313.088 621.614 315.526 622.085 317.582 623.028C319.639 623.972 321.224 625.301 322.338 627.017C323.463 628.722 324.031 630.716 324.043 633H314.974ZM340.875 657.477C338.034 657.477 335.602 656.915 333.58 655.79C331.557 654.653 330.006 653.074 328.926 651.051C327.847 649.017 327.307 646.659 327.307 643.977C327.307 641.295 327.847 638.943 328.926 636.92C330.006 634.886 331.557 633.307 333.58 632.182C335.602 631.045 338.034 630.477 340.875 630.477C343.443 630.477 345.665 630.943 347.54 631.875C349.426 632.795 350.886 634.102 351.92 635.795C352.955 637.477 353.477 639.455 353.489 641.727H344.761C344.636 640.352 344.239 639.307 343.568 638.591C342.909 637.864 342.057 637.5 341.011 637.5C340.193 637.5 339.477 637.739 338.864 638.216C338.25 638.682 337.773 639.392 337.432 640.347C337.091 641.29 336.92 642.477 336.92 643.909C336.92 645.341 337.091 646.534 337.432 647.489C337.773 648.432 338.25 649.142 338.864 649.619C339.477 650.085 340.193 650.318 341.011 650.318C341.705 650.318 342.318 650.159 342.852 649.841C343.386 649.511 343.818 649.034 344.148 648.409C344.489 647.773 344.693 647 344.761 646.091H353.489C353.455 648.398 352.926 650.409 351.903 652.125C350.881 653.83 349.432 655.148 347.557 656.08C345.693 657.011 343.466 657.477 340.875 657.477ZM357.371 657V630.818H366.507V635.795H366.78C367.257 633.955 368.013 632.608 369.047 631.756C370.092 630.903 371.314 630.477 372.712 630.477C373.121 630.477 373.524 630.511 373.922 630.58C374.331 630.636 374.723 630.722 375.098 630.835V638.864C374.632 638.705 374.058 638.585 373.376 638.506C372.695 638.426 372.109 638.386 371.621 638.386C370.7 638.386 369.871 638.597 369.132 639.017C368.405 639.426 367.831 640.006 367.411 640.756C366.99 641.494 366.78 642.364 366.78 643.364V657H357.371ZM378.183 657V630.818H387.592V657H378.183ZM382.888 628.091C381.615 628.091 380.524 627.67 379.615 626.83C378.706 625.989 378.251 624.977 378.251 623.795C378.251 622.614 378.706 621.602 379.615 620.761C380.524 619.92 381.615 619.5 382.888 619.5C384.172 619.5 385.263 619.92 386.161 620.761C387.07 621.602 387.524 622.614 387.524 623.795C387.524 624.977 387.07 625.989 386.161 626.83C385.263 627.67 384.172 628.091 382.888 628.091ZM392.25 657V622.091H401.659V635.386H401.795C402.136 634.5 402.636 633.687 403.295 632.949C403.955 632.199 404.773 631.602 405.75 631.159C406.727 630.705 407.864 630.477 409.159 630.477C410.886 630.477 412.528 630.938 414.085 631.858C415.653 632.778 416.926 634.227 417.903 636.205C418.892 638.182 419.386 640.75 419.386 643.909C419.386 646.932 418.915 649.437 417.972 651.426C417.04 653.415 415.79 654.898 414.222 655.875C412.665 656.852 410.955 657.341 409.091 657.341C407.864 657.341 406.767 657.142 405.801 656.744C404.847 656.335 404.028 655.784 403.347 655.091C402.676 654.386 402.159 653.591 401.795 652.705H401.591V657H392.25ZM401.455 643.909C401.455 645.182 401.619 646.284 401.949 647.216C402.29 648.136 402.767 648.852 403.381 649.364C404.006 649.864 404.75 650.114 405.614 650.114C406.477 650.114 407.21 649.869 407.812 649.381C408.426 648.881 408.892 648.17 409.21 647.25C409.54 646.318 409.705 645.205 409.705 643.909C409.705 642.614 409.54 641.506 409.21 640.585C408.892 639.653 408.426 638.943 407.812 638.455C407.21 637.955 406.477 637.705 405.614 637.705C404.75 637.705 404.006 637.955 403.381 638.455C402.767 638.943 402.29 639.653 401.949 640.585C401.619 641.506 401.455 642.614 401.455 643.909ZM435.869 657.477C433.074 657.477 430.665 656.943 428.642 655.875C426.631 654.795 425.08 653.25 423.989 651.239C422.909 649.216 422.369 646.795 422.369 643.977C422.369 641.273 422.915 638.909 424.006 636.886C425.097 634.864 426.636 633.29 428.625 632.165C430.614 631.04 432.96 630.477 435.665 630.477C437.642 630.477 439.432 630.784 441.034 631.398C442.636 632.011 444.006 632.903 445.142 634.074C446.278 635.233 447.153 636.642 447.767 638.301C448.381 639.96 448.688 641.83 448.688 643.909V646.091H425.301V640.909H440.028C440.017 640.159 439.824 639.5 439.449 638.932C439.085 638.352 438.591 637.903 437.966 637.585C437.352 637.256 436.653 637.091 435.869 637.091C435.108 637.091 434.409 637.256 433.773 637.585C433.136 637.903 432.625 638.347 432.239 638.915C431.864 639.483 431.665 640.148 431.642 640.909V646.5C431.642 647.341 431.818 648.091 432.17 648.75C432.523 649.409 433.028 649.926 433.688 650.301C434.347 650.676 435.142 650.864 436.074 650.864C436.722 650.864 437.313 650.773 437.847 650.591C438.392 650.409 438.858 650.148 439.244 649.807C439.631 649.455 439.915 649.034 440.097 648.545H448.688C448.392 650.364 447.693 651.943 446.591 653.284C445.489 654.614 444.028 655.648 442.21 656.386C440.403 657.114 438.29 657.477 435.869 657.477Z" fill="white"/>
<defs>
<linearGradient id="paint0_linear_30_1671" x1="349.5" y1="8.24748e-07" x2="349.714" y2="944.605" gradientUnits="userSpaceOnUse">
<stop stop-color="#47007E"/>
<stop offset="0.502742" stop-color="#59009E"/>
<stop offset="1" stop-color="#A634FF"/>
</linearGradient>
<linearGradient id="paint1_linear_30_1671" x1="480.335" y1="391.01" x2="318.188" y2="276.559" gradientUnits="userSpaceOnUse">
<stop stop-color="#EBA591"/>
<stop offset="1" stop-color="#D97777" stop-opacity="0.9"/>
</linearGradient>
</defs>
</svg>
